<svg width="1680" height="136" viewBox="0 0 1680 136" fill="none" xmlns="http://www.w3.org/2000/svg">
<g clip-path="url(#clip0_1_128)">
<path d="M0 68H1680" stroke="white" stroke-width="2"/>
<path d="M120 68L62 34V102L120 68Z" fill="#6C6CC7"/>
<path d="M1270 98L1390 68L1270 38V98Z" fill="#7EDD87"/>
<path d="M1506 38L1476 68L1506 98L1536 68L1506 38Z" fill="#6C6CC7"/>
<path d="M1621 68C1621 79.599 1611.6 89 1600 89C1588.4 89 1579 79.599 1579 68C1579 56.401 1588.4 47 1600 47C1611.6 47 1621 56.401 1621 68Z" fill="#5B9D99"/>
<path d="M412.5 38H377.5L360 68L377.5 98H412.5L430 68L412.5 38Z" fill="#004853" stroke="white" stroke-width="2"/>
<path d="M244.467 68.5C244.467 69.8623 243.362 70.9667 242 70.9667C240.638 70.9667 239.533 69.8623 239.533 68.5C239.533 67.1377 240.638 66.0333 242 66.0333C243.362 66.0333 244.467 67.1377 244.467 68.5Z" fill="#004853"/>
<path d="M223.5 50L205 68.5L223.5 87L242 68.5L223.5 50Z" fill="#5B9D99"/>
<path d="M260.5 50L242 68.5L260.5 87L279 68.5L260.5 50Z" fill="#5B9D99"/>
</g>
<defs>
<clipPath id="clip0_1_128">
<rect width="1680" height="136" fill="white"/>
</clipPath>
</defs>
</svg>
