<svg width="1680" height="874" viewBox="0 0 1680 874" fill="none" xmlns="http://www.w3.org/2000/svg">
<path d="M2131.42 1376.64L2131.43 1376.63C2429.54 1078.51 2429.54 595.167 2131.43 297.049L2131.42 297.042C1833.3 -1.07676 1349.95 -1.07674 1051.84 297.042L1051.83 297.049C753.711 595.167 753.711 1078.51 1051.83 1376.63L1051.84 1376.64C1349.95 1674.76 1833.3 1674.76 2131.42 1376.64Z" stroke="#232323" stroke-width="4" stroke-miterlimit="10" stroke-linecap="round" stroke-dasharray="0.01 10"/>
<path d="M1965.51 376.191L119.37 -546.879L-1726.76 376.191L119.37 1299.25L1965.51 376.191Z" stroke="#232323" stroke-width="2" stroke-miterlimit="10" stroke-dasharray="10 10"/>
<path d="M1408.18 117.449C1419.23 117.449 1428.18 108.495 1428.18 97.4492C1428.18 86.4035 1419.23 77.4492 1408.18 77.4492C1397.13 77.4492 1388.18 86.4035 1388.18 97.4492C1388.18 108.495 1397.13 117.449 1408.18 117.449Z" fill="#6C6CC7"/>
</svg>
